# xmcd
# 
# Track frame offsets:
#     150
#     13717
#     24314
#     35057
#     45261
#     55516
#     68556
#     78062
#     89022
#     99801
#     113000
#     125719
#     138143
#     148431
#     158049
#     170339
#     181108
#     193921
#     204399
#     218175
#     234217
#     242481
#     257765
#     275569
#     288542
#     299688
#     308949
#     318439
#     329081
#     348113
# 
# Disc length: 4790
# 
# Revision: 0
# Processed by: cddbd v1.5.2PL0 Copyright (c) Steve Scherf et al.
# Submitted via: fre:ac v1.0.17
# 
DISCID=b112b41e
DTITLE=Various Artist - Rumba Blues III CD2
DYEAR=2010
DGENRE=Blues
TTITLE0=Ray Charles - What'd I Say (Part 1)
TTITLE1=Texas Ray - Mary Ann
TTITLE2=Arthur Alexander  - The Girl That Radiates That Charm
TTITLE3=Junior Wells - Messin' With The Kid
TTITLE4=Willie Jones - Where's My Money
TTITLE5=Little Willie John - Heartbreak (It's Hurtin' Me)
TTITLE6=Link Wray and The Wraymen - Raw-Hide
TTITLE7=James Brown - And I Do Just What I Want
TTITLE8=Davey Cortez - Hurricane
TTITLE9=Ruth Brown - I Don't Know
TTITLE10=The Coasters - Poison Ivy (echo guitar) (stereo)
TTITLE11=Teddy Randazzo - Let The Sunshine In
TTITLE12=Curtis Knight - Voodoo Woman-cr
TTITLE13=Tal Miller - Only Sixteen
TTITLE14=Renaldo Jackson  - Congolese Tip
TTITLE15=The Orioles - Hey Little Woman
TTITLE16=Barrett Strong - You Knows What To Do
TTITLE17=Charles Brown and Amos Milburn - Educated Fool
TTITLE18=The Isley Brothers - St Louis Blues
TTITLE19=Cozy Cole - Topsy II
TTITLE20=Bobby Hebb - Night Train To Memphis
TTITLE21=Andre Williams - Shoo-Doo
TTITLE22=Phil Upchurch - Cha Cha Cha Blues
TTITLE23=Buddy Guy - Gully Hully
TTITLE24=Louis Brooks and His Hi-Toppers - Frisco.
TTITLE25=The Olympics - Dustbin Prophecies Cd10
TTITLE26=Ford Eaglin - Yours Truly
TTITLE27=Chuck Berry - Mad Lad
TTITLE28=Gary U.S. Bonds - I Wanna Holler
TTITLE29=Huey "Piano" Smith - We Like Birdland
EXTD=
EXTT0=
EXTT1=
EXTT2=
EXTT3=
EXTT4=
EXTT5=
EXTT6=
EXTT7=
EXTT8=
EXTT9=
EXTT10=
EXTT11=
EXTT12=
EXTT13=
EXTT14=
EXTT15=
EXTT16=
EXTT17=
EXTT18=
EXTT19=
EXTT20=
EXTT21=
EXTT22=
EXTT23=
EXTT24=
EXTT25=
EXTT26=
EXTT27=
EXTT28=
EXTT29=
PLAYORDER=
